PathFileType	4	(X/Y/Z)	C:/Users/beibeiliu/ov580/test_trc/User1\sequence.28_training_dense_left.trc
DataRate	CameraRate	NumFrames	NumMarkers	Units	OrigDataRate	OrigDataStartFrame	OrigNumFrames
120	120	20	19	mm	120	152	243
Frame#	Time	ThumbCMC			ThumbMCP			ThumbIP			ThumbTip			IndexMCP			IndexPIP			IndexTip			MiddleMCP			MiddlePIP			MiddleTip			RingMCP			RingPIP			RingTip			PinkyMCP			PinkyPIP			PinkyTip			BackHand1			BackHand2			BackHand3	
		X0	Y0	Z0	X1	Y1	Z1	X2	Y2	Z2	X3	Y3	Z3	X4	Y4	Z4	X5	Y5	Z5	X6	Y6	Z6	X7	Y7	Z7	X8	Y8	Z8	X9	Y9	Z9	X10	Y10	Z10	X11	Y11	Z11	X12	Y12	Z12	X13	Y13	Z13	X14	Y14	Z14	X15	Y15	Z15	X16	Y16	Z16	X17	Y17	Z17	X18	Y18	Z18	
151	1.25833	-89.9191	-8.71775	56.149	-81.6347	-14.713	21.3386	-72.9023	-10.2311	-8.62344	-79.7704	-8.95344	-32.9	-90.3975	49.7389	0.0293869	-83.3762	52.7827	-31.5255	-79.0067	32.8157	-58.367	-113.998	46.2598	-16.354	-102.541	31.458	-48.6051	-95.2354	-7.08589	-49.0129	-134.962	44.3843	-21.2824	-125.545	36.8232	-50.7878	-117.982	15.6375	-66.3044	-164.482	28.3	-10.1637	-170.107	32.7187	-31.9302	-169.312	38.8912	-55.7292	-151.974	28.1129	37.7061	-159.893	10.0658	66.7448	-122.176	23.9152	59.8195	
152	1.26667	-90.9614	-8.82749	56.0796	-79.3817	-18.1106	23.8658	-72.5718	-12.2479	-5.32261	-76.4846	-10.042	-31.7961	-86.8058	50.7465	-1.95648	-79.3943	53.0368	-32.1787	-77.5964	35.7605	-56.8563	-112.014	47.9753	-17.9467	-99.6718	33.0498	-47.7252	-96.6712	-4.68022	-49.7873	-133.77	44.7377	-17.3979	-126.657	39.131	-48.9497	-117.09	12.0269	-67.4404	-167.474	27.2733	-9.28087	-166.422	34.5971	-32.3658	-165.576	39.4916	-57.4736	-149.984	26.0596	40.1084	-155.549	12.0138	69.4287	-121.025	22.5661	62.6921	
153	1.275	-92.9613	-9.58488	56.4892	-76.2685	-17.3253	22.6777	-75.7641	-9.71756	-5.34569	-76.7991	-10.1007	-30.2523	-90.6661	49.1666	-0.123877	-79.4627	53.2538	-34.2816	-78.474	33.1121	-59.3784	-107.984	49.06	-19.5979	-101.442	32.5223	-48.1425	-93.6327	-4.70728	-49.4689	-137.629	44.1351	-17.0867	-126.061	38.4655	-51.5357	-116.284	16.4506	-65.2578	-163.078	28.4983	-8.95904	-168.946	33.451	-34.2213	-167.128	39.5559	-56.9458	-150.153	28.3072	36.7057	-157.922	10.6051	69.9758	-120.656	22.2021	64.4005	
154	1.28333	-92.9055	-9.00334	56.5504	-74.9689	-16.0628	20.9599	-72.0422	-8.89814	-9.10195	-80.2503	-6.74482	-30.9907	-86.3716	52.799	-2.87787	-83.7028	53.5383	-33.2648	-79.2428	36.5262	-57.0808	-111.934	48.6258	-18.2027	-99.0471	33.8049	-47.4294	-93.4196	-5.98987	-49.1891	-132.776	44.8405	-15.2187	-126.713	37.5275	-51.7244	-117.022	14.8132	-66.4596	-165.419	27.1916	-7.66151	-166.151	36.1268	-32.8119	-167.318	39.3827	-54.8799	-147.629	27.5264	39.9232	-157.636	9.46078	69.9501	-117.656	22.7159	61.5857	
155	1.29167	-92.4379	-10.5939	59.3135	-80.2433	-13.904	21.2425	-73.4817	-10.0928	-6.62574	-77.4642	-6.45277	-34.8131	-85.6171	51.3191	1.23596	-79.4152	56.1416	-31.901	-76.4077	37.9247	-57.8608	-109.947	50.3339	-16.4344	-96.9527	32.2987	-47.8262	-95.0651	-2.40973	-50.7063	-131.944	46.1919	-16.131	-127.428	40.9478	-49.2956	-115.408	16.0993	-65.933	-163.63	30.3617	-10.6757	-168.523	34.2835	-31.9566	-168.091	41.6648	-55.3101	-146.804	28.9652	40.9256	-155.98	11.675	72.1801	-121.571	23.0373	64.8533	
156	1.3	-91.0272	-8.26594	57.0454	-79.385	-13.9706	23.1122	-72.0502	-9.34161	-7.27012	-74.5652	-10.3733	-33.4177	-90.3152	52.9419	-2.67604	-83.8036	55.9981	-31.6953	-77.8487	38.3146	-56.7574	-111.858	51.5916	-19.3794	-100.487	36.7196	-48.0011	-96.0242	-1.74673	-52.9285	-136.36	46.7309	-19.9833	-122.778	40.2623	-49.6866	-115.345	14.4547	-66.0502	-161.47	28.7078	-6.99135	-166.101	34.9499	-29.5346	-170.244	40.9818	-55.5182	-147.909	28.3694	38.4839	-154.582	12.0194	68.9752	-120.9	24.7016	60.5679	
157	1.30833	-89.4994	-9.94221	59.8664	-78.849	-17.1624	24.724	-72.6842	-10.3401	-7.19807	-79.1706	-8.00284	-32.3308	-86.0321	53.4027	0.649501	-82.0224	56.7509	-29.3597	-74.8855	39.0318	-57.2793	-113.777	52.3942	-14.8256	-99.0991	40.683	-47.9572	-95.4674	1.16547	-55.9038	-137.634	45.4314	-18.947	-124.678	40.0313	-48.9148	-116.086	13.1693	-65.7789	-164.602	29.7236	-9.24976	-166.583	35.4313	-30.208	-163.345	40.9232	-56.5729	-150.549	29.4083	37.3808	-157.81	12.3178	68.1791	-117.376	23.1742	64.2787	
158	1.31667	-91.7669	-7.741	56.3498	-76.7014	-14.4652	20.6226	-76.2184	-10.0932	-5.30691	-78.3316	-9.01855	-31.9327	-88.4019	54.8853	-1.80202	-81.9361	57.4204	-31.9321	-77.6223	40.4403	-57.4915	-110.359	55.3938	-18.2014	-101.411	46.3719	-46.5745	-96.5419	10.4352	-59.7441	-136.33	47.4397	-22.049	-124.625	40.5203	-49.8395	-118.603	16.0686	-65.5083	-166.024	29.8463	-10.5895	-169.847	32.9408	-30.4633	-165.56	37.9145	-59.5993	-149.449	26.7136	40.083	-158.761	12.2841	68.6301	-118.088	25.0815	63.1684	
159	1.325	-91.0324	-9.85518	57.7479	-76.354	-13.3931	19.0538	-74.968	-6.85744	-9.64538	-79.9187	-6.61043	-35.0414	-85.7359	53.161	1.17122	-80.0683	58.0568	-34.3388	-79.3722	41.2537	-56.8209	-113.988	55.2382	-14.686	-103.632	46.373	-48.9647	-94.9225	12.9366	-62.6878	-137.95	45.7244	-19.5093	-124.001	40.6412	-49.9621	-115.895	14.1825	-64.6343	-163.679	30.4048	-9.88357	-165.52	34.0672	-32.2943	-163.351	40.366	-56.9687	-150.812	28.4531	40.6967	-158.147	13.8743	67.8046	-120.641	25.3759	61.0824	
160	1.33333	-93.1483	-9.64623	57.6063	-78.2549	-13.5457	20.6623	-74.796	-8.29964	-9.86528	-81.5268	-4.87612	-38.4213	-89.3905	55.4602	-2.15548	-81.7131	59.35	-31.6602	-76.5395	41.2034	-60.2257	-111.486	57.2373	-16.7371	-102.332	49.4616	-48.4618	-95.7767	15.62	-67.2625	-136.18	46.0469	-17.3318	-127.386	37.541	-53.8066	-118.332	14.2743	-64.7847	-164.946	27.9364	-9.76126	-167.472	32.8206	-37.9384	-159.4	37.615	-63.2802	-146.146	31.627	38.1221	-153.64	12.6346	68.1926	-117.894	25.1519	64.0529	
161	1.34167	-93.0363	-8.9469	56.9312	-76.0827	-15.2575	19.0167	-77.1543	-7.54753	-10.623	-82.4281	-5.27362	-37.7526	-86.2642	53.7571	-0.440874	-80.6563	59.4501	-29.905	-78.2228	40.6257	-60.4044	-114.374	55.6507	-13.5542	-105.588	52.4402	-48.3427	-97.0473	24.087	-70.276	-137.149	46.3349	-21.2644	-124.485	38.3391	-50.3803	-117.118	9.01753	-64.9248	-163.529	27.0907	-9.6711	-163.057	32.0562	-34.5991	-160.357	32.7481	-62.1592	-148.061	30.1065	36.5258	-158.27	13.3562	64.6387	-121.59	25.5406	60.295	
162	1.35	-93.685	-8.04964	56.3122	-77.778	-13.6034	18.4394	-76.2384	-9.89627	-9.34958	-84.5537	-5.84195	-34.1839	-86.312	54.1759	-0.544456	-82.9071	57.4902	-35.4849	-77.6048	41.3452	-61.8485	-113.683	57.8775	-15.9127	-101.097	54.157	-49.3503	-93.4248	28.6705	-71.251	-133.107	44.8161	-23.093	-125.697	34.6296	-50.9427	-116.742	7.53736	-62.5574	-163.569	28.3468	-13.0275	-164.778	29.7247	-37.369	-155.129	29.8946	-66.358	-149.111	28.4198	38.1818	-156.786	13.6695	65.2358	-117.644	23.8166	63.7737	
163	1.35833	-91.6384	-7.89241	55.6954	-79.2758	-14.725	21.1253	-77.828	-6.20106	-12.4917	-85.4011	-6.25083	-35.5239	-87.5107	53.3327	-1.96563	-83.1769	57.718	-34.5725	-78.3015	44.2703	-59.5742	-112.196	57.9071	-14.7389	-105.72	56.1687	-46.2979	-93.1943	33.2691	-70.7203	-135.583	42.8698	-20.1355	-124.019	34.2567	-49.9323	-112.037	3.21034	-58.4065	-159.822	27.2603	-11.945	-160.17	30.7263	-37.048	-152.935	29.0335	-61.5547	-150.34	28.9168	39.2249	-154.709	11.8133	68.1432	-117.986	22.253	64.0031	
164	1.36667	-93.0802	-7.0986	54.9326	-79.8459	-14.7051	20.0709	-81.8687	-6.19615	-10.2157	-86.1941	-5.38701	-36.6621	-85.3714	54.8677	-3.06274	-79.7132	59.149	-32.7069	-77.3087	45.1894	-58.0523	-110.704	58.0842	-11.9762	-103.408	57.0115	-47.3634	-94.378	32.3309	-73.2475	-133.634	42.6934	-21.5433	-125.149	30.135	-51.7074	-112.671	2.04114	-54.5296	-161.095	25.7852	-11.9952	-155.783	30.6211	-39.1942	-145.208	29.6951	-64.9819	-149.668	27.2541	37.7428	-158.97	11.1323	67.8709	-118.277	26.038	61.1727	
165	1.375	-90.9926	-6.6709	54.8999	-81.0235	-12.9918	19.32	-81.557	-5.61107	-12.1634	-89.574	-4.16902	-36.5893	-85.8183	53.5833	0.21301	-82.0635	57.3978	-34.7286	-78.3021	43.6488	-60.191	-113.102	57.8658	-14.7092	-101.681	56.8032	-49.3467	-89.8051	34.2624	-72.2798	-129.708	42.3467	-22.4644	-119.747	26.3445	-52.083	-110.856	-2.14902	-52.048	-157.666	27.7179	-15.0101	-159.736	27.8353	-38.4325	-145.429	26.3999	-62.1628	-151.117	29.3108	37.9855	-155.66	14.6554	66.1093	-121.786	26.3401	61.0696	
166	1.38333	-89.4818	-7.59163	54.9257	-77.7496	-14.4369	17.9832	-77.3484	-6.54337	-13.4407	-91.9587	-3.37285	-34.9209	-86.3839	52.7332	0.369629	-80.4375	57.9828	-33.7279	-71.3776	43.2963	-60.9338	-111.561	59.8339	-16.0005	-101.292	57.3363	-48.2649	-91.3046	33.8864	-73.4333	-135.397	41.033	-22.7119	-120.228	26.4574	-49.9826	-114.332	-4.71669	-50.3696	-160.261	25.0323	-17.5412	-153.453	26.4298	-41.0308	-146.084	23.9636	-64.8706	-151.684	28.274	38.1133	-154.509	11.7845	67.2385	-116.489	25.4171	60.341	
167	1.39167	-90.3799	-10.3548	57.7932	-78.9887	-12.8401	16.7698	-77.1669	-9.16672	-10.7807	-89.8588	-5.21051	-37.9873	-85.2088	55.2587	-2.65721	-80.3547	57.5227	-34.1425	-73.3835	41.6408	-59.8583	-113.475	57.8487	-15.3282	-102.474	57.3441	-46.036	-93.5069	32.2923	-73.3678	-131.81	39.9865	-20.0151	-120.289	24.3548	-51.1359	-112.248	-8.19167	-48.834	-156.942	25.2345	-14.37	-156.317	24.0169	-40.0217	-146.057	21.871	-65.3443	-150.1	29.0937	36.5205	-155.798	10.3786	66.1729	-116.817	24.8961	59.5979	
168	1.4	-92.5046	-7.30233	54.2084	-78.6568	-15.6835	19.7902	-81.6324	-6.67543	-11.3249	-87.973	-5.84818	-38.37	-85.0493	54.3584	-1.29419	-80.2648	57.6079	-34.3092	-74.5343	42.6491	-60.1104	-110.228	58.3204	-15.3742	-101.864	57.4983	-46.8282	-90.3973	30.9796	-74.4375	-130.737	40.0126	-26.2175	-116.66	23.8235	-50.1905	-110.507	-5.09973	-48.3733	-157.329	24.3875	-15.8436	-151.726	24.8453	-42.6129	-139.911	21.4125	-62.8931	-149.23	27.167	37.405	-157.651	10.8113	64.1266	-117.932	25.5505	62.6569	
169	1.40833	-89.3662	-10.37	57.3078	-81.1279	-11.7854	17.6389	-82.4273	-4.78856	-11.363	-89.0792	-5.70352	-35.0739	-85.0481	54.5768	-1.37443	-76.9863	58.7665	-32.0069	-72.0917	44.3086	-57.2109	-113.698	57.7391	-14.6254	-98.0147	57.2632	-47.6176	-90.0973	35.173	-71.5368	-131.816	40.8072	-21.4885	-121.366	24.2232	-52.0576	-111.33	-10.4984	-48.0883	-153.862	26.0171	-16.7278	-153.171	22.3793	-42.1997	-139.092	18.2871	-64.3179	-147.602	26.6371	37.2745	-155.643	11.9566	67.1981	-120.218	25.9003	60.9053	
170	1.41667	-88.7814	-5.78295	54.4633	-75.2917	-13.9243	17.5962	-78.0537	-7.62505	-9.35725	-90.6665	-4.09187	-37.8086	-85.6514	55.6747	-4.75725	-79.6444	58.726	-32.1425	-73.6835	44.2598	-59.5995	-112.768	59.4868	-16.7847	-97.1801	58.8295	-48.022	-93.2583	34.9407	-72.0968	-132.07	41.0399	-27.4338	-117.282	23.2281	-52.357	-110.174	-4.72383	-49.4025	-156.876	24.3146	-16.7518	-148.638	24.1656	-39.4249	-131.219	15.5835	-64.3474	-150.793	25.63	35.1004	-158.26	11.7375	64.8429	-120.69	25.7983	61.3684	
